<?xml version="1.0" standalone="no"?><!DOCTYPE svg PUBLIC "-//W3C//DTD SVG 1.1//EN" "http://www.w3.org/Graphics/SVG/1.1/DTD/svg11.dtd"><svg class="icon" width="200px" height="196.17px" viewBox="0 0 1044 1024" version="1.1" xmlns="http://www.w3.org/2000/svg"><path fill="#333333" d="M515.204746 1024C377.571561 1024 248.168301 970.752 150.869338 874.116741 53.551412 777.367704-0.018958 648.798815 5.0e-06 512 5.0e-06 375.220148 53.608301 246.632296 150.94519 149.921185 248.244153 53.248 377.647412 0 515.299561 0 652.989635 0 782.373931 53.248 879.71082 149.921185 1080.623412 349.601185 1080.604449 674.417778 879.71082 874.021926 782.354968 970.714074 652.89482 1024 515.204746 1024 515.204746 1024 515.204746 1024 515.204746 1024 515.204746 1024 515.204746 1024 515.204746 1024 515.204746 1024 515.204746 1024 515.204746 1024ZM515.299561 66.730667C395.567412 66.730667 283.060153 113.019259 198.409487 197.101037 113.75882 281.163852 67.147857 393.02637 67.147857 512 67.128894 630.992593 113.720894 742.836148 198.333635 826.936889 282.965338 910.980741 395.510524 957.326222 515.204746 957.326222 634.955857 957.326222 747.557931 910.942815 832.227561 826.842074 1006.933338 653.255111 1006.933338 370.744889 832.227561 197.101037 747.576894 113.019259 635.031709 66.730667 515.299561 66.730667 515.299561 66.730667 515.299561 66.730667 515.299561 66.730667 515.299561 66.730667 515.299561 66.730667 515.299561 66.730667 515.299561 66.730667 515.299561 66.730667 515.299561 66.730667ZM332.174227 651.738074C332.174227 651.738074 392.552301 747.633778 515.185783 747.633778 637.819264 747.633778 718.24119 651.738074 718.24119 651.738074 718.24119 651.738074 763.828153 651.58637 763.80919 699.676444 763.80919 699.676444 684.771561 811.557926 515.185783 811.557926 345.600005 811.557926 290.39882 699.676444 290.39882 699.676444 290.39882 699.676444 288.730079 651.738074 332.174227 651.738074 332.174227 651.738074 332.174227 651.738074 332.174227 651.738074 332.174227 651.738074 332.174227 651.738074 332.174227 651.738074ZM365.454227 347.363556C330.714079 347.363556 302.345487 375.447704 302.345487 410.074074 302.345487 444.662519 330.695116 472.746667 365.454227 472.746667 400.365042 472.746667 428.562968 444.662519 428.562968 410.074074 428.562968 375.447704 400.365042 347.363556 365.454227 347.363556 365.454227 347.363556 365.454227 347.363556 365.454227 347.363556 365.454227 347.363556 365.454227 347.363556 365.454227 347.363556 365.454227 347.363556 365.454227 347.363556 365.454227 347.363556ZM688.791709 347.363556C653.994672 347.363556 625.720894 375.447704 625.720894 410.074074 625.720894 444.662519 653.994672 472.746667 688.791709 472.746667 723.664598 472.746667 751.900449 444.662519 751.900449 410.074074 751.900449 375.447704 723.664598 347.363556 688.791709 347.363556 688.791709 347.363556 688.791709 347.363556 688.791709 347.363556 688.791709 347.363556 688.791709 347.363556 688.791709 347.363556 688.791709 347.363556 688.791709 347.363556 688.791709 347.363556Z" /></svg>