<?xml version="1.0" standalone="no"?><!DOCTYPE svg PUBLIC "-//W3C//DTD SVG 1.1//EN" "http://www.w3.org/Graphics/SVG/1.1/DTD/svg11.dtd"><svg class="icon" width="200px" height="200.00px" viewBox="0 0 1024 1024" version="1.1" xmlns="http://www.w3.org/2000/svg"><path fill="#d81e06" d="M512 102.4C286.72 102.4 102.4 286.72 102.4 512s184.32 409.6 409.6 409.6 409.6-184.32 409.6-409.6S737.28 102.4 512 102.4z m40.96 179.2L537.6 563.2h-53.76l-12.8-281.6h81.92z m-5.12 448c-10.24 7.68-23.04 12.8-35.84 12.8-12.8 0-25.6-5.12-35.84-12.8-10.24-10.24-15.36-23.04-15.36-38.4s5.12-25.6 15.36-35.84c10.24-10.24 20.48-15.36 35.84-15.36s25.6 5.12 35.84 15.36c10.24 10.24 15.36 20.48 15.36 35.84 0 15.36-5.12 28.16-15.36 38.4z"  /></svg>