<?xml version="1.0" standalone="no"?><!DOCTYPE svg PUBLIC "-//W3C//DTD SVG 1.1//EN" "http://www.w3.org/Graphics/SVG/1.1/DTD/svg11.dtd"><svg class="icon" width="200px" height="200.00px" viewBox="0 0 1024 1024" version="1.1" xmlns="http://www.w3.org/2000/svg"><path fill="#666666" d="M225.834667 225.834667a42.624 42.624 0 0 1 60.330666 0L512 451.626667l225.834667-225.792a42.666667 42.666667 0 0 1 56.32-3.541334l4.010666 3.541334a42.624 42.624 0 0 1 0 60.330666L572.373333 512l225.792 225.834667a42.666667 42.666667 0 0 1 3.541334 56.32l-3.541334 4.010666a42.624 42.624 0 0 1-60.330666 0L512 572.373333l-225.834667 225.792a42.666667 42.666667 0 0 1-56.32 3.541334l-4.010666-3.541334a42.624 42.624 0 0 1 0-60.330666L451.626667 512 225.834667 286.165333a42.666667 42.666667 0 0 1-3.541334-56.32l3.541334-4.010666z" /></svg>