<?xml version="1.0" standalone="no"?><!DOCTYPE svg PUBLIC "-//W3C//DTD SVG 1.1//EN" "http://www.w3.org/Graphics/SVG/1.1/DTD/svg11.dtd"><svg class="icon" width="200px" height="200.00px" viewBox="0 0 1024 1024" version="1.1" xmlns="http://www.w3.org/2000/svg"><path fill="#979797" d="M873.984 150.016C777.216 53.248 648.704 0 512 0 229.888 0 0 229.888 0 512s229.888 512 512 512 512-229.888 512-512c0-136.704-53.248-265.216-150.016-361.984zM318.464 923.648c-31.744-14.848-61.44-33.28-89.088-55.296-14.336-11.264-26.624-22.528-38.4-34.304-28.16-28.16-52.224-59.392-72.192-94.208-3.584-6.144-6.656-12.288-10.24-18.432l207.36-207.36c0 4.608 0 9.728 0.512 14.336 0.512 5.12 1.024 10.752 2.048 16.384v378.88z m648.192-411.136c0 39.424-5.12 78.848-15.872 117.76-2.048 6.656-3.584 13.312-6.144 20.48h-293.376c3.584-3.584 6.656-7.168 9.728-10.752 3.584-4.096 6.656-8.192 10.24-12.8l268.288-268.288c11.776 32.768 19.968 67.072 24.064 102.4 2.048 17.92 3.072 34.816 3.072 51.2zM512 371.712c77.312 0 140.288 62.976 140.288 140.288 0 77.312-62.976 140.288-140.288 140.288-77.312 0-140.288-62.976-140.288-140.288 0-77.312 62.976-140.288 140.288-140.288z m138.752-1.024c-3.584-3.584-7.168-6.656-10.752-9.728-4.096-3.584-8.192-6.656-12.8-10.24L359.424 82.432c32.768-11.776 67.072-19.968 102.4-24.064 17.92-2.048 34.816-3.072 51.2-3.072 39.424 0 78.848 5.12 117.76 15.872 6.656 2.048 13.312 3.584 20.48 6.144v293.376zM495.616 315.904c-5.632 0.512-10.752 1.024-16.384 2.048h-378.88c14.848-31.744 33.28-61.44 55.296-89.088 11.264-13.824 22.528-26.624 34.304-38.4 28.16-28.16 59.392-52.224 94.208-72.192 6.144-3.584 12.288-6.656 18.432-10.24l207.36 207.36c-5.12 0-9.728 0.512-14.336 0.512zM57.344 511.488c0-39.424 5.12-78.848 15.872-117.76 1.536-6.656 3.584-13.312 6.144-20.48h293.376c-3.584 3.584-6.656 6.656-9.728 10.752-3.584 4.096-6.656 8.192-10.24 12.8l-268.288 268.288c-11.776-32.768-19.968-67.072-24.064-102.4-2.048-17.92-3.072-34.816-3.072-51.2z m680.96 395.776c-6.144 3.584-12.288 6.656-18.432 10.24L512 710.144c4.608 0 9.728 0 14.336-0.512 5.12-0.512 10.752-1.024 16.384-2.048h378.88c-14.848 31.744-33.28 61.44-55.296 89.088-11.264 14.336-22.528 26.624-34.304 38.4-27.648 28.16-59.392 52.736-93.696 72.192zM373.76 653.312c3.584 3.584 7.168 6.656 10.752 9.728 4.096 3.584 8.192 7.168 12.8 10.24l268.288 268.288c-31.744 11.264-65.024 19.456-98.816 23.552l-3.584 0.512c-17.92 2.048-34.816 3.072-51.2 3.072-39.424 0-78.848-5.12-117.76-15.872-6.656-1.536-13.312-3.584-20.48-6.144v-293.376z m334.336-145.408c0-4.608 0-9.728-0.512-14.336-0.512-5.632-1.024-10.752-2.048-16.384V97.792c31.744 14.848 61.44 33.28 89.088 55.296 14.336 11.264 26.624 22.528 38.4 34.304 28.16 28.16 52.224 59.392 72.192 94.208 3.584 6.144 6.656 12.288 10.24 18.432l-207.36 207.872z"  /></svg>