<?xml version="1.0" standalone="no"?><!DOCTYPE svg PUBLIC "-//W3C//DTD SVG 1.1//EN" "http://www.w3.org/Graphics/SVG/1.1/DTD/svg11.dtd"><svg class="icon" width="200px" height="200.00px" viewBox="0 0 1024 1024" version="1.1" xmlns="http://www.w3.org/2000/svg"><path fill="#333333" d="M637.858909 916.340364H146.734545a146.292364 146.292364 0 0 1-146.338909-146.315637V278.877091a146.269091 146.269091 0 0 1 146.338909-146.315636h491.147637a146.269091 146.269091 0 0 1 146.315636 146.315636v491.147636a146.315636 146.315636 0 0 1-146.338909 146.315637zM146.734545 205.195636a72.936727 72.936727 0 0 0-72.657454 72.657455v491.147636a72.936727 72.936727 0 0 0 72.657454 72.634182h491.147637a72.913455 72.913455 0 0 0 72.634182-72.634182v-490.123636a72.96 72.96 0 0 0-72.634182-72.680727H146.734545v-1.000728z m0 0M947.874909 848.802909c-22.504727 0-43.985455-9.216-62.417454-27.624727l-163.723637-162.699637c-14.336-14.336-14.336-37.841455 0-52.177454s37.864727-14.336 52.200727 0l163.700364 162.699636c6.144 6.144 10.216727 6.144 11.240727 6.144s2.048-2.048 2.048-6.144V292.189091c0-4.096-1.024-6.144-2.048-6.144s-6.144 0-11.240727 6.144l-163.700364 163.700364a37.050182 37.050182 0 0 1-52.200727 0 37.026909 37.026909 0 0 1 0-52.177455l163.723637-163.723636c25.576727-25.576727 61.370182-34.792727 91.066181-21.480728 28.625455 12.288 47.057455 39.889455 47.057455 73.681455v477.835636c0 33.768727-18.432 61.393455-47.057455 73.658182-9.192727 4.096-19.432727 5.12-28.648727 5.12z m0 0" /></svg>