<?xml version="1.0" standalone="no"?>
<!DOCTYPE svg PUBLIC "-//W3C//DTD SVG 1.1//EN" "http://www.w3.org/Graphics/SVG/1.1/DTD/svg11.dtd"><svg class="icon" width="200px" height="200.00px" viewBox="0 0 1024 1024" version="1.1" xmlns="http://www.w3.org/2000/svg">
  <path fill="#979797" d="M940.3 959H83.7l-3.2-21.2c-0.8-5.4-19.2-132.8 64.8-192.2 25-17.8 53-26.7 77-33.1h0.2c10.8-2.8 21.9-5.2 32.6-7.6 51.6-11.4 100.4-22.2 136-69.1 2.5-5.8 1.5-28.4-31.2-68.5-29.6-36.1-48.6-83.5-56.6-141-8.1-58.3-2.7-112.7 3.2-148 8.2-49.6 30.9-91 65.4-119.7 35.8-29.7 84.2-45.4 140-45.4 55.1 0 103.2 15.7 139.3 45.4 35.2 29 58.1 70.4 66.3 119.8 5.9 35.3 11.3 89.6 3.2 148-8 57.4-27 104.9-56.6 141-32.8 40.1-33.7 62.7-31.2 68.5 35.5 46.8 84.2 57.6 135.6 69.1 11.3 2.5 22.9 5.1 34.3 8.1h0.2c23.7 6.4 51.3 15.2 75.7 32.6 83.9 59.5 65.5 186.8 64.7 192.2l-3.1 21.1z m-811.9-50h767.2c0.8-32.2-3.7-92.8-45.8-122.7-18-12.8-40.2-19.9-59.6-25.1-10.5-2.7-21.1-5.1-32.4-7.6-55.3-12.3-118-26.2-164.6-87.6-3.8-4.7-12-17.7-10.8-39.9 1.4-26.7 15.9-57.1 43.2-90.5 23.7-28.9 39.1-68 45.8-116.2 7.2-52.1 2.3-101-3-132.9-6.2-37.3-23.1-68.2-48.8-89.4-27-22.2-64.2-34-107.5-34-44.6 0-81 11.4-108.1 33.9-25.2 20.9-41.8 51.9-48.1 89.4v0.1c-5.4 31.9-10.2 80.8-3 132.9 6.7 48.2 22.1 87.2 45.8 116.2 27.3 33.4 41.8 63.9 43.2 90.5 1.1 22.2-7.1 35.2-10.9 39.9-46.7 61.4-109.5 75.3-164.9 87.6-10.8 2.4-20.9 4.6-30.9 7.2-19.7 5.2-42.2 12.3-60.8 25.5-42.3 29.9-46.8 90.5-46 122.7z" />
</svg>
