<?xml version="1.0" standalone="no"?><!DOCTYPE svg PUBLIC "-//W3C//DTD SVG 1.1//EN" "http://www.w3.org/Graphics/SVG/1.1/DTD/svg11.dtd"><svg class="icon" width="200px" height="200.00px" viewBox="0 0 1024 1024" version="1.1" xmlns="http://www.w3.org/2000/svg"><path fill="#979797" d="M259 845.262l67.155-36.936a30 30 0 0 1 25.549-1.588C401.589 826.586 455.924 837 512 837c215.054 0 388-152.88 388-339.5S727.054 158 512 158 124 310.88 124 497.5c0 95.395 45.267 184.662 123.933 248.666A30 30 0 0 1 259 769.437v75.825z m-15.542 77.024C223.464 933.283 199 918.818 199 896V783.395C113.518 708.998 64 606.898 64 497.5 64 275.982 265.344 98 512 98s448 177.982 448 399.5S758.656 897 512 897c-58.713 0-115.887-10.081-169.084-29.416l-99.458 54.702zM288 562c-33.137 0-60-26.863-60-60s26.863-60 60-60 60 26.863 60 60-26.863 60-60 60zM510 562c-33.137 0-60-26.863-60-60s26.863-60 60-60 60 26.863 60 60-26.863 60-60 60zM737 562c-33.137 0-60-26.863-60-60s26.863-60 60-60 60 26.863 60 60-26.863 60-60 60z" /></svg>